<?xml version="1.0" encoding="iso-8859-1"?>
<!-- Generator: Adobe Illustrator 16.0.0, SVG Export Plug-In . SVG Version: 6.00 Build 0)  -->
<!DOCTYPE svg PUBLIC "-//W3C//DTD SVG 1.1//EN" "http://www.w3.org/Graphics/SVG/1.1/DTD/svg11.dtd">
<svg version="1.1" id="Capa_1" xmlns="http://www.w3.org/2000/svg" xmlns:xlink="http://www.w3.org/1999/xlink" x="0px" y="0px"
	 width="612.004px" height="612.004px" viewBox="0 0 612.004 612.004" style="enable-background:new 0 0 612.004 612.004;"
	 xml:space="preserve">
<g>
	<g>
		<path d="M517.466,604.093c-0.211,0-0.412,0-0.623,0H364.419c-6.154,0-11.128-4.974-11.128-11.127V419.989
			c0-4.996-4.217-9.214-9.214-9.214h-81.408c-4.996,0-9.213,4.218-9.213,9.214v172.977c0,6.153-4.974,11.127-11.127,11.127H89.693
			c-13.687,0-27.14-5.675-36.91-15.556c-9.77-9.881-15.056-22.822-14.9-36.442V348.773c0-2.96,1.168-5.775,3.26-7.867
			L295.506,86.554c4.351-4.351,11.384-4.351,15.734,0l254.352,254.352c2.093,2.092,3.261,4.907,3.261,7.867v203.488
			c0,13.709-5.675,27.173-15.567,36.954C543.549,598.83,530.853,604.093,517.466,604.093z M375.546,581.838h141.431
			c0.122,0,0.233,0,0.345,0c7.622,0,14.788-2.993,20.308-8.456c5.697-5.631,8.969-13.32,8.969-21.12V353.38L303.374,110.156
			L60.127,353.38v198.837c-0.089,7.756,2.927,15.066,8.479,20.675c5.619,5.687,13.297,8.946,21.075,8.946H231.19V419.989
			c0-17.359,14.121-31.469,31.468-31.469h81.408c17.358,0,31.469,14.109,31.469,31.469v161.849H375.546z M600.877,321.822
			c-2.814,0-5.63-1.068-7.8-3.193L304.008,34.6L18.877,310.939c-4.395,4.284-11.439,4.185-15.734-0.233
			c-4.284-4.406-4.173-11.461,0.233-15.734L296.319,11.055c4.34-4.218,11.239-4.184,15.544,0.056l296.814,291.651
			c4.384,4.306,4.439,11.35,0.134,15.734C606.642,320.721,603.76,321.822,600.877,321.822z"/>
	</g>
</g>
<g>
</g>
<g>
</g>
<g>
</g>
<g>
</g>
<g>
</g>
<g>
</g>
<g>
</g>
<g>
</g>
<g>
</g>
<g>
</g>
<g>
</g>
<g>
</g>
<g>
</g>
<g>
</g>
<g>
</g>
</svg>
