<?xml version="1.0"?>
<svg xmlns="http://www.w3.org/2000/svg" id="Layer_1" enable-background="new 0 0 511.999 511.999" height="512px" viewBox="0 0 511.999 511.999" width="512px"><g><g><path d="m503.923 213.753-69.883-61.661v-98.092c0-8.284-6.716-15-15-15h-60c-8.284 0-15 6.716-15 15v18.68l-78.117-68.928c-5.669-5.002-14.178-5.003-19.848 0l-238 210c-6.212 5.481-6.804 14.96-1.323 21.172s14.96 6.804 21.172 1.323l32.096-28.32v274.071h-14.021c-8.284 0-15 6.716-15 15s6.716 15 15 15h420c8.284 0 15-6.716 15-15s-6.716-15-15-15h-14.02v-274.071l32.097 28.321c2.852 2.517 6.392 3.753 9.918 3.752 4.154 0 8.289-1.716 11.254-5.076 5.48-6.211 4.887-15.69-1.325-21.171zm-129.883-144.753h30v56.621l-30-26.471zm47.939 412.999h-331.959v-300.542l165.979-146.453 166.184 146.633c-.122.772-.204 300.362-.204 300.362z" data-original="#000000" class="active-path" data-old_color="#000000" fill="#3B3B98"/><path d="m305.907 214c-19.188 0-36.936 7.569-49.908 20.62-12.971-13.051-30.719-20.62-49.908-20.62-38.87 0-70.494 31.623-70.494 70.493 0 36.434 29.603 73.428 47.249 92.237 20.618 21.977 52.147 47.641 73.152 47.641 20.168 0 51.198-22.777 73.002-45.35 17.702-18.327 47.399-54.977 47.399-94.528.002-38.87-31.622-70.493-70.492-70.493zm1.71 143.978c-23.178 24.058-45.589 36.299-51.575 36.394-5.919-.282-28.319-13.48-51.883-38.773-24.146-25.917-38.562-52.499-38.562-71.106 0-22.328 18.166-40.493 40.494-40.493 15.617 0 29.574 8.729 36.425 22.78 2.514 5.155 7.747 8.426 13.483 8.426s10.969-3.271 13.483-8.426c6.851-14.051 20.809-22.78 36.425-22.78 22.328 0 40.494 18.165 40.494 40.493 0 21.118-14.136 47.902-38.784 73.485z" data-original="#000000" class="active-path" data-old_color="#000000" fill="#3B3B98"/></g></g> </svg>
