<svg width="750" height="750" viewBox="0 0 750 750" fill="none" xmlns="http://www.w3.org/2000/svg">
<rect width="750" height="750" fill="white"/>
<path d="M460.686 395.838C460.686 443.802 421.8 482.682 373.838 482.682C325.881 482.682 287 443.802 287 395.838C287 347.88 325.88 309 373.838 309C421.8 308.999 460.686 347.88 460.686 395.838Z" stroke="#C3C3C3" stroke-width="9" stroke-miterlimit="10"/>
<path d="M594.526 328.73V483.151C594.526 515.094 568.49 541.083 536.547 541.083H210.979C179.036 541.083 153 515.094 153 483.151V328.73C153 296.787 179.036 270.751 210.979 270.751H222.603C246.607 270.751 264.942 258.418 266.311 247.361C269.099 225.295 296.269 208 328.165 208H414.447C446.2 208 473.796 225.153 477.245 247.077C479.041 258.276 497.847 270.751 521.993 270.751H536.547C568.49 270.751 594.526 296.787 594.526 328.73Z" stroke="#C3C3C3" stroke-width="9" stroke-miterlimit="10"/>
<path d="M247.114 318.934C247.114 329.753 238.333 338.53 227.51 338.53C216.685 338.53 207.907 329.753 207.907 318.934C207.907 308.104 216.684 299.327 227.51 299.327C238.333 299.327 247.114 308.104 247.114 318.934Z" stroke="#C3C3C3" stroke-width="9" stroke-miterlimit="10"/>
<g opacity="0.7">
<path d="M375.877 357.5C382.909 357.5 388.611 351.792 388.611 344.75C388.611 337.708 382.909 332 375.877 332C368.844 332 363.143 337.708 363.143 344.75C363.143 351.792 368.844 357.5 375.877 357.5Z" fill="black"/>
<path d="M348.351 362.846C354.472 362.846 359.434 357.877 359.434 351.749C359.434 345.62 354.472 340.651 348.351 340.651C342.23 340.651 337.268 345.62 337.268 351.749C337.268 357.877 342.23 362.846 348.351 362.846Z" fill="#212121"/>
<path d="M328.293 382.016C334.097 382.016 338.802 377.305 338.802 371.494C338.802 365.683 334.097 360.972 328.293 360.972C322.489 360.972 317.784 365.683 317.784 371.494C317.784 377.305 322.489 382.016 328.293 382.016Z" fill="#323232"/>
<path d="M321.607 408.795C326.913 408.795 331.215 404.488 331.215 399.175C331.215 393.862 326.913 389.556 321.607 389.556C316.301 389.556 312 393.862 312 399.175C312 404.488 316.301 408.795 321.607 408.795Z" fill="#494949"/>
<path d="M328.32 435.27C333.472 435.27 337.649 431.087 337.649 425.928C337.649 420.769 333.472 416.587 328.32 416.587C323.167 416.587 318.99 420.769 318.99 425.928C318.99 431.087 323.167 435.27 328.32 435.27Z" fill="#5A5A5A"/>
<path d="M348.378 454.137C353.052 454.137 356.841 450.343 356.841 445.663C356.841 440.982 353.052 437.188 348.378 437.188C343.703 437.188 339.914 440.982 339.914 445.663C339.914 450.343 343.703 454.137 348.378 454.137Z" fill="#6C6C6C"/>
<path d="M376.035 460.526C380.051 460.526 383.307 457.266 383.307 453.245C383.307 449.224 380.051 445.964 376.035 445.964C372.019 445.964 368.763 449.224 368.763 453.245C368.763 457.266 372.019 460.526 376.035 460.526Z" fill="#7F7F7F"/>
<path d="M403.23 453.21C407.246 453.21 410.502 449.95 410.502 445.929C410.502 441.907 407.246 438.647 403.23 438.647C399.214 438.647 395.958 441.907 395.958 445.929C395.958 449.95 399.214 453.21 403.23 453.21Z" fill="#999999"/>
<path d="M422.984 433.126C426.77 433.126 429.839 430.053 429.839 426.262C429.839 422.471 426.77 419.398 422.984 419.398C419.198 419.398 416.129 422.471 416.129 426.262C416.129 430.053 419.198 433.126 422.984 433.126Z" fill="#B0B0B0"/>
<path d="M430.581 405.131C433.944 405.131 436.669 402.402 436.669 399.035C436.669 395.669 433.944 392.939 430.581 392.939C427.219 392.939 424.493 395.669 424.493 399.035C424.493 402.402 427.219 405.131 430.581 405.131Z" fill="#C9C9C9"/>
<path d="M422.984 377.44C425.915 377.44 428.29 375.061 428.29 372.127C428.29 369.192 425.915 366.813 422.984 366.813C420.053 366.813 417.678 369.192 417.678 372.127C417.678 375.061 420.053 377.44 422.984 377.44Z" fill="#E4E4E4"/>
<path d="M403.533 355.164C405.501 355.164 407.096 353.567 407.096 351.597C407.096 349.627 405.501 348.03 403.533 348.03C401.566 348.03 399.971 349.627 399.971 351.597C399.971 353.567 401.566 355.164 403.533 355.164Z" fill="#F0F0F0"/>
</g>
</svg>
