<svg width="750" height="750" viewBox="0 0 750 750" fill="none" xmlns="http://www.w3.org/2000/svg">
<rect width="750" height="750" fill="white"/>
<g clip-path="url(#clip0)">
<g opacity="0.65">
<g opacity="0.65">
<path opacity="0.65" d="M207.891 512.038C179.368 508.787 157.101 484.507 157.101 455.129V302.46C157.101 270.881 182.841 245.14 214.42 245.14H225.915C249.651 245.14 267.773 232.947 269.128 222.011C271.886 200.196 298.743 183.101 330.28 183.101H415.59C446.979 183.101 474.263 200.056 477.67 221.732C478.336 225.845 481.315 230.132 486.029 233.901" stroke="black" stroke-opacity="0.85" stroke-width="9" stroke-miterlimit="10"/>
<path opacity="0.65" d="M526.337 245.822C569.853 239.254 593.665 267.991 593.623 302.459V455.128C593.623 486.715 567.882 512.406 536.304 512.406H259.775" stroke="black" stroke-opacity="0.85" stroke-width="9" stroke-miterlimit="10"/>
<path opacity="0.65" d="M303.587 416.342C294.687 402.819 289.506 386.618 289.506 369.212C289.506 321.803 327.94 283.36 375.357 283.36C392.764 283.36 408.956 288.533 422.487 297.442" stroke="black" stroke-opacity="0.85" stroke-width="9" stroke-miterlimit="10"/>
<path opacity="0.65" d="M461.225 369.212C461.225 416.637 422.774 455.071 375.357 455.071C358.723 455.071 343.196 450.342 330.042 442.139L448.285 323.896C456.487 337.051 461.225 352.577 461.225 369.212Z" stroke="black" stroke-opacity="0.85" stroke-width="9" stroke-miterlimit="10"/>
<path opacity="0.65" d="M250.149 292.775C250.149 303.471 241.467 312.148 230.767 312.148C220.064 312.148 211.387 303.471 211.387 292.775C211.387 282.068 220.064 273.391 230.767 273.391C241.467 273.391 250.149 282.068 250.149 292.775Z" stroke="black" stroke-opacity="0.85" stroke-width="9" stroke-miterlimit="10"/>
<path opacity="0.65" d="M573.868 198.576L203.052 569.394" stroke="black" stroke-opacity="0.85" stroke-width="9" stroke-miterlimit="10"/>
</g>
</g>
</g>
<defs>
<clipPath id="clip0">
<rect x="152" y="178" width="446.723" height="395" fill="white"/>
</clipPath>
</defs>
</svg>
