<svg fill="#fff" id="Layer_1" height="512" viewBox="0 0 512 512" width="512" xmlns="http://www.w3.org/2000/svg" data-name="Layer 1"><path d="m236.02 411.957a175.475 175.475 0 0 0 120.142-47.311l85.6 85.6a6 6 0 0 0 8.484-8.484l-85.6-85.6c64.428-68.918 63.047-177.4-4.162-244.606a176.019 176.019 0 1 0 -124.464 300.4zm-115.979-291.917a164.02 164.02 0 0 1 231.959 0c63.95 63.951 63.95 168.008 0 231.96s-168.009 63.949-231.96 0a164.02 164.02 0 0 1 0-231.96z"/><path d="m176.02 242.02h54v54a6 6 0 0 0 12 0v-54h54a6 6 0 0 0 0-12h-54v-54a6 6 0 0 0 -12 0v54h-54a6 6 0 0 0 0 12z"/></svg>